<?xml version="1.0" encoding="utf-8"?>
<!-- Generator: Adobe Illustrator 25.4.1, SVG Export Plug-In . SVG Version: 6.00 Build 0)  -->
<svg version="1.1" id="Layer_1" xmlns="http://www.w3.org/2000/svg" xmlns:xlink="http://www.w3.org/1999/xlink" x="0px" y="0px"
	 viewBox="0 0 100 41" style="enable-background:new 0 0 100 41;" xml:space="preserve">
<style type="text/css">
	.st0{fill:#FFFFFF;}
</style>
<g>
	<g transform="translate(0.000000,268.000000) scale(0.100000,-0.100000)">
		<path class="st0" d="M0.1,2475.2v-204.8h53.2h53.2v204.8V2680H53.2H0.1V2475.2z"/>
		<path class="st0" d="M136.1,2475.2v-204.8H183h46.9l0.2,131.8c0.2,72.4,0.5,130.6,0.8,129.3c0.3-1.3,8.8-58.9,18.6-128.2
			c9.8-69.3,18.3-127.4,18.8-129.3c0.8-3.6,0.9-3.6,33.6-3.6s32.8,0,33.5,3.6c0.5,1.9,5.5,38,11.1,80.1
			c5.5,42.2,13.4,101.6,17.5,132.1l7.5,55.5l0.5-135.7l0.3-135.6l46.6,0.3l46.4,0.5v204.1v204.1l-69.1,0.5l-69.3,0.3l-0.8-3.4
			c-0.3-2-5.6-43-11.7-91.2c-13.3-104.9-11.7-94.4-12.8-91.5c-0.6,1.3-6.7,43.2-13.8,93c-7,49.9-13.1,91.2-13.6,91.9
			c-0.3,0.6-31.6,1.1-69.4,1.1h-68.6L136.1,2475.2L136.1,2475.2z"/>
		<path class="st0" d="M495.7,2475v-205l88.8,0.8c76.8,0.5,90.2,0.9,100.4,3.3c30,6.9,46.4,21.9,53,48.3
			c3.1,13.1,4.8,59.9,4.7,142.6c0,89.4-1.7,139.3-5.3,152.9c-8.4,32.1-32.2,51.3-70.8,57.2c-20,3.1-61.3,4.8-116.3,4.8h-54.4
			L495.7,2475L495.7,2475z M625.7,2605.6c9.9-5,9.7-4.4,10.5-105.4c0.6-95.4-0.8-137.4-4.8-147.5c-3-6.7-9.4-10.5-20.8-11.6
			l-8.4-0.9v134.9v134.9l9.4-0.9C616.6,2608.5,623,2607,625.7,2605.6z"/>
		<path class="st0" d="M766.3,2475.2v-204.8H814h47.5l1.7,6.3c0.8,3.4,2.3,9.2,3.3,12.7l1.7,6.6l4.5-5.6
			c5.9-7.2,23.5-18.8,33.5-22.2c24.6-8.3,53.9-2.5,73,14.7c9.5,8.6,14.4,16.9,18,30.7c2.7,10,2.8,20.8,2.8,132.1v121.2l-4.2,9.1
			c-8.6,18.3-20.6,28.3-40.3,33.3c-13.8,3.4-35.7,3.4-48.2-0.2c-10.5-3-24.1-10.9-33-19.2c-2.8-2.8-5.5-5-5.8-5
			c-0.3,0-0.6,21.4-0.6,47.7v47.7h-50.8h-50.8L766.3,2475.2L766.3,2475.2z M888.9,2551.1c9.4-3.9,9.4-3.4,10-101.8
			c0.3-50.2-0.2-95.5-0.9-104c-1.4-13.1-2-15.2-5.6-18.3c-5.3-4.5-12.2-4.5-17.4,0c-6.7,5.8-7.2,15.5-6.7,119.3
			c0.5,103.1,0.5,102.1,8.9,105.2C882.8,2553.7,882.9,2553.7,888.9,2551.1z"/>
	</g>
</g>
</svg>
